<svg xmlns="http://www.w3.org/2000/svg" viewBox="0 0 467.46 385.01"><defs><style>.cls-1{isolation:isolate;}.cls-2{fill:#deebff;}.cls-3{fill:#3a6fe6;}.cls-4{fill:#2d56b3;}.cls-5{fill:#e8e8e8;}.cls-6{fill:#a9bcbf;}.cls-14,.cls-6{mix-blend-mode:multiply;}.cls-7{fill:#a0bdff;}.cls-8{fill:#0e1416;}.cls-9{fill:#2a363b;}.cls-10,.cls-11{fill:#fff;}.cls-11{fill-rule:evenodd;}.cls-12{fill:#f4b990;}.cls-13{fill:#6ca8ff;}.cls-14{fill:#e8d7cd;}.cls-15{fill:#9e6c52;}.cls-16{fill:#1b1b28;}.cls-17{fill:#84533d;}.cls-18{fill:#8e4136;}.cls-19{fill:#c16b5b;}.cls-20{fill:#d8a27d;}</style></defs><g class="cls-1"><g id="Layer_2" data-name="Layer 2"><g id="OBJECTS"><ellipse class="cls-2" cx="240.78" cy="183.44" rx="225.66" ry="180.67"/><path class="cls-3" d="M43,320.78c-4.9-5.68-12.12-8.65-18.81-12s-13.49-7.92-16.07-15c-.91-2.48-.93-5.83,1.35-7.14s5.11.36,7.18,2q4.91,3.94,9.5,8.24a8.73,8.73,0,0,0,3.66,2.43c1.44.35,3.25-.32,3.58-1.76s-.86-2.75-2-3.68c-5.73-4.7-12.63-7.71-18.75-11.89S.93,271.86.07,264.5c-.32-2.81.39-6.16,2.93-7.4a5.81,5.81,0,0,1,5.33.47,15.77,15.77,0,0,1,4.05,3.77A131.19,131.19,0,0,1,24.24,278c1,1.7,2.72,3.69,4.56,3a2.83,2.83,0,0,0,1.49-3,7.67,7.67,0,0,0-1.53-3.25c-4.59-6.67-10.23-12.57-14.87-19.21S5.55,241.1,5.64,233c.06-4.65,2.27-10.11,6.87-10.79a7.92,7.92,0,0,1,6.43,2.37,17.25,17.25,0,0,1,3.71,6c5.33,13,4.18,28.1,10.29,40.76.45.92,1.1,1.95,2.12,2A2.07,2.07,0,0,0,37,271.61a6,6,0,0,0-.25-2.79q-2-8.24-3.38-16.6a17,17,0,0,1-.23-6,6.1,6.1,0,0,1,3.52-4.63,5.87,5.87,0,0,1,6.07,1.75,12.73,12.73,0,0,1,2.83,6c2.8,12.1-1.78,24.85.15,37.12.29,1.8,1.48,4.08,3.23,3.56,1.39-.41,1.64-2.23,1.63-3.68q0-7.1-.08-14.18a14.46,14.46,0,0,1,.66-5.41,4.89,4.89,0,0,1,4-3.26c2.57-.1,4.41,2.46,5.31,4.87,2.66,7.08,1.63,15-.38,22.29s-5,14.33-6.17,21.79c-.72,4.48.11,8.49,4.42,13.28,1.47,1.64,6.54,7.61,5.57,8.95C60,340.12,44.63,322.68,43,320.78Z"/><path class="cls-4" d="M56.6,268.24c-.07-.68-1.11-.48-1,.2a74,74,0,0,1-5.41,35.44,72.66,72.66,0,0,1-4.26,8.51c-2.41-5.71-4.21-11.75-6-17.44-.16-.48-.34-.95-.5-1.43l0-.07A118.28,118.28,0,0,0,40.7,257c-.41-3.46-1-6.89-1.69-10.3a.53.53,0,0,0-1,.2,117.49,117.49,0,0,1,1.88,36.32c-.3,2.78-.71,5.55-1.2,8.31a173.17,173.17,0,0,0-7.55-18c-3.29-6.82-6.8-13.52-9.89-20.43-3.45-7.74-6.33-15.77-7.58-24.18-.1-.68-1.15-.48-1,.2,2.28,15.28,9.78,29,16.49,42.67C31.58,276.84,34,282,36,287.29a61.22,61.22,0,0,1-25.4-17.21A59.28,59.28,0,0,1,5.27,263c-.37-.57-1.33-.11-1,.47a61.84,61.84,0,0,0,31.88,25,.49.49,0,0,0,.29,0c.57,1.5,1.12,3,1.63,4.55,1.67,5,3.15,10.12,5,15.1a50.5,50.5,0,0,1-24-10.39,48,48,0,0,1-5.62-5.23c-.46-.5-1.27.19-.8.7a51.27,51.27,0,0,0,30.82,16.07c.82,2.16,1.69,4.31,2.69,6.4C49.46,322.57,54,329,60.5,333.19c.57.37,1.17-.51.59-.88-7-4.53-11.4-11.29-14.68-18.7a75,75,0,0,0,10.47-35A74.81,74.81,0,0,0,56.6,268.24Z"/><path class="cls-3" d="M327.61,145.63c3.82-4.42,9.44-6.74,14.65-9.38s10.5-6.17,12.51-11.65c.71-1.93.73-4.54-1-5.56s-4,.28-5.59,1.57q-3.81,3.08-7.4,6.42a6.83,6.83,0,0,1-2.85,1.89,2.28,2.28,0,0,1-2.79-1.37c-.26-1.12.67-2.14,1.56-2.87,4.46-3.66,9.84-6,14.6-9.25s9.11-7.89,9.78-13.62c.25-2.19-.3-4.8-2.28-5.76a4.54,4.54,0,0,0-4.15.36,12.26,12.26,0,0,0-3.16,2.94,104.19,104.19,0,0,0-9.23,13c-.8,1.33-2.12,2.88-3.55,2.31a2.21,2.21,0,0,1-1.16-2.36,5.9,5.9,0,0,1,1.19-2.53c3.58-5.19,8-9.79,11.58-15s6.49-11.16,6.42-17.47c0-3.62-1.77-7.87-5.35-8.4a6.12,6.12,0,0,0-5,1.84,13.34,13.34,0,0,0-2.89,4.67c-4.15,10.12-3.25,21.87-8,31.73-.35.72-.86,1.51-1.65,1.56a1.62,1.62,0,0,1-1.52-1.35,4.88,4.88,0,0,1,.2-2.17q1.57-6.4,2.64-12.92a13.29,13.29,0,0,0,.17-4.7,4.75,4.75,0,0,0-2.73-3.6,4.59,4.59,0,0,0-4.73,1.36,9.83,9.83,0,0,0-2.2,4.66c-2.19,9.42,1.38,19.35-.12,28.9-.23,1.4-1.16,3.18-2.52,2.77-1.08-.32-1.27-1.74-1.27-2.86q0-5.53.07-11a11.19,11.19,0,0,0-.52-4.2,3.76,3.76,0,0,0-3.13-2.54c-2-.08-3.43,1.91-4.13,3.79-2.07,5.51-1.27,11.68.29,17.35s3.87,11.16,4.81,17c.56,3.49-.09,6.61-3.44,10.34-1.14,1.27-5.09,5.91-4.34,7C314.4,160.68,326.34,147.1,327.61,145.63Z"/><path class="cls-4" d="M317,104.72c.05-.53.86-.37.81.16A57.54,57.54,0,0,0,322,132.47a56.06,56.06,0,0,0,3.32,6.62c1.87-4.44,3.28-9.14,4.71-13.57.12-.38.26-.74.39-1.12l0-.05a92.18,92.18,0,0,1-1-28.42q.48-4,1.32-8a.41.41,0,0,1,.81.16,91.29,91.29,0,0,0-1.46,28.27c.23,2.17.55,4.33.94,6.47a134.11,134.11,0,0,1,5.87-14c2.56-5.3,5.3-10.52,7.7-15.9a73.4,73.4,0,0,0,5.9-18.82c.08-.53.89-.38.81.15-1.77,11.89-7.61,22.57-12.84,33.23-1.95,4-3.8,8-5.4,12.11a47.63,47.63,0,0,0,19.77-13.39,45.46,45.46,0,0,0,4.16-5.51c.29-.44,1-.08.75.36a48.47,48.47,0,0,1-18.29,16.67,47.06,47.06,0,0,1-6.53,2.81.34.34,0,0,1-.22,0c-.45,1.17-.88,2.36-1.28,3.55-1.3,3.9-2.45,7.88-3.86,11.75a39.28,39.28,0,0,0,18.67-8.09,37.5,37.5,0,0,0,4.38-4.07c.36-.39,1,.15.62.54a40.11,40.11,0,0,1-18.17,11.28,38.74,38.74,0,0,1-5.83,1.23c-.63,1.69-1.31,3.36-2.09,5C322.58,147,319,152,314,155.29c-.45.29-.92-.4-.47-.69C319,151.08,322.4,145.82,325,140a58.39,58.39,0,0,1-8.15-27.25A57.22,57.22,0,0,1,317,104.72Z"/><path class="cls-3" d="M361.39,250.81q-.76,12.72-2.76,25.3a262.47,262.47,0,0,1-10.95,44A264.24,264.24,0,0,1,333,354.61a3,3,0,0,1,.75.87l.13-.05q4.17-8.12,7.78-16.52a264.69,264.69,0,0,0,14.19-43,262,262,0,0,0,6.67-45C362.59,250.19,361.44,250.07,361.39,250.81Z"/><path class="cls-3" d="M361.33,260.25s11.74-19.11,2.33-39.12C363.66,221.13,351.58,241,361.33,260.25Z"/><path class="cls-4" d="M362.63,229.19c0-.74,1.14-.62,1.14.12a204.86,204.86,0,0,1-1.87,29.18c-.1.73-1.25.62-1.15-.12A206.34,206.34,0,0,0,362.63,229.19Z"/><path class="cls-3" d="M360.56,265.9s20.25-4.23,27.69-23.22C388.25,242.68,367.32,247.14,360.56,265.9Z"/><path class="cls-4" d="M382.2,247.09c.49-.47,1.14.38.65.85a188.87,188.87,0,0,1-20.75,17.23c-.55.4-1.2-.44-.65-.84A190.09,190.09,0,0,0,382.2,247.09Z"/><path class="cls-3" d="M358.88,274.93s17.93-.07,27.57-14.89C386.45,260,367.89,260.17,358.88,274.93Z"/><path class="cls-4" d="M380.54,262.73c.5-.32.9.52.4.83a163.09,163.09,0,0,1-20.62,11c-.54.24-.95-.59-.41-.83A165.82,165.82,0,0,0,380.54,262.73Z"/><path class="cls-3" d="M357.61,283.38s17.76,2.51,29.42-10.78C387,272.6,368.64,270.07,357.61,283.38Z"/><path class="cls-4" d="M380.79,274.41c.55-.24.82.65.28.88a163.43,163.43,0,0,1-22,7.95c-.57.16-.85-.72-.28-.88A163.43,163.43,0,0,0,380.79,274.41Z"/><path class="cls-3" d="M356.22,292s16.07,3.7,27.8-7.56C384,284.41,367.38,280.65,356.22,292Z"/><path class="cls-4" d="M378.16,285.58c.52-.18.7.65.19.83A150.3,150.3,0,0,1,357.58,292a.43.43,0,0,1-.19-.83A150.3,150.3,0,0,0,378.16,285.58Z"/><path class="cls-3" d="M354.56,298.84s13.46,5,24.86-3.37C379.42,295.47,365.47,290.33,354.56,298.84Z"/><path class="cls-4" d="M374.23,295.81c.46-.09.53.64.07.74A131.86,131.86,0,0,1,355.74,299c-.48,0-.55-.71-.07-.73A131.69,131.69,0,0,0,374.23,295.81Z"/><path class="cls-3" d="M352.82,304.61s11.07,6.82,22.67,1.38C375.49,306,364,299,352.82,304.61Z"/><path class="cls-4" d="M370.82,305.38c.43,0,.36.67-.07.67a119.58,119.58,0,0,1-16.91-1.11.33.33,0,0,1,.07-.66A118.1,118.1,0,0,0,370.82,305.38Z"/><path class="cls-3" d="M351.63,308.4s7.41,8.82,18.69,7.48C370.32,315.88,362.62,306.77,351.63,308.4Z"/><path class="cls-4" d="M366.56,314.07c.37.11.12.65-.24.54A106.32,106.32,0,0,1,352.39,309c-.34-.17-.09-.71.25-.54A105.63,105.63,0,0,0,366.56,314.07Z"/><path class="cls-3" d="M350.64,312.67s4,8.28,13,9.45C363.62,322.12,359.46,313.57,350.64,312.67Z"/><path class="cls-4" d="M361.07,320c.26.17,0,.54-.3.37a83.44,83.44,0,0,1-9.65-7.1c-.23-.2.07-.57.3-.37A82.59,82.59,0,0,0,361.07,320Z"/><path class="cls-3" d="M360.28,268.13S342.59,257.4,341.89,237C341.89,237,360.15,248.19,360.28,268.13Z"/><path class="cls-4" d="M346.13,243.19c-.31-.61-1.2,0-.89.59a188.69,188.69,0,0,0,13.83,23.15c.39.56,1.28,0,.89-.58A189.32,189.32,0,0,1,346.13,243.19Z"/><path class="cls-3" d="M358.92,277.61s-16.89-6-21-23.21C337.88,254.4,355.33,260.7,358.92,277.61Z"/><path class="cls-4" d="M342.55,258.9c-.36-.46-1,.19-.65.65a163.17,163.17,0,0,0,15.78,17.25c.43.41,1.09-.24.66-.65A163.26,163.26,0,0,1,342.55,258.9Z"/><path class="cls-3" d="M357.45,286.3s-17.58-3.54-24.15-19.95C333.3,266.35,351.47,270.08,357.45,286.3Z"/><path class="cls-4" d="M338.57,270.13c-.43-.41-1,.34-.55.74a163.58,163.58,0,0,0,18.09,14.81c.48.34,1-.4.55-.74A164.51,164.51,0,0,1,338.57,270.13Z"/><path class="cls-3" d="M356.24,293s-16.46-1-24.54-15.09C331.7,277.92,348.73,279,356.24,293Z"/><path class="cls-4" d="M337,280.7c-.44-.32-.85.43-.41.74a151.39,151.39,0,0,0,18.36,11.18c.49.24.9-.5.41-.75A152.09,152.09,0,0,1,337,280.7Z"/><path class="cls-3" d="M354.19,300.21s-14.35.25-22.31-11.45C331.88,288.76,346.73,288.55,354.19,300.21Z"/><path class="cls-4" d="M336.65,290.81c-.4-.25-.71.43-.3.67A130.06,130.06,0,0,0,353,300a.37.37,0,0,0,.3-.67A131.38,131.38,0,0,1,336.65,290.81Z"/><path class="cls-3" d="M352.59,305.19s-12.71,2.75-21.84-6.25C330.75,298.94,343.91,296.15,352.59,305.19Z"/><path class="cls-4" d="M335.36,299.92c-.41-.14-.56.51-.16.66a120.15,120.15,0,0,0,16.32,4.58c.42.09.58-.56.16-.65A118.36,118.36,0,0,1,335.36,299.92Z"/><path class="cls-3" d="M351.47,309.69s-9.93,5.85-20.12.83C331.35,310.52,341.65,304.5,351.47,309.69Z"/><path class="cls-4" d="M335.5,310.06c-.38,0-.33.59.05.6a107.55,107.55,0,0,0,15-.69c.38-.05.33-.64-.05-.6A104.57,104.57,0,0,1,335.5,310.06Z"/><path class="cls-3" d="M350,315.14s-6.52,6.48-15.39,4.6C334.56,319.74,341.33,313.06,350,315.14Z"/><path class="cls-4" d="M337.68,318.57c-.3.07-.14.52.15.45a83.76,83.76,0,0,0,11.47-3.49.23.23,0,0,0-.16-.44A84.57,84.57,0,0,1,337.68,318.57Z"/><ellipse class="cls-5" cx="242.25" cy="358.71" rx="218.78" ry="26.3"/><rect class="cls-6" x="165.86" y="148.11" width="158.14" height="153.71"/><path class="cls-7" d="M63.42,103.08l38-11.57A6.88,6.88,0,0,1,110,96.09l5.94,19.47a6.87,6.87,0,0,1-4.58,8.59l-15,4.58-1.88,8.08-6-5.66-15,4.58a6.88,6.88,0,0,1-8.59-4.58l-5.94-19.48A6.9,6.9,0,0,1,63.42,103.08Z"/><path class="cls-3" d="M74.81,114.72a6.49,6.49,0,0,1,11-6.3,6.5,6.5,0,1,1,12.27,3.8h0l-.09.17-.09.17L91,125.48,78.29,118.7A6.46,6.46,0,0,1,74.81,114.72Z"/><path class="cls-7" d="M117.14,51.78l29.78,5.32a5.24,5.24,0,0,1,4.24,6.08l-2.73,15.28a5.24,5.24,0,0,1-6.08,4.24l-11.78-2.11-4.07,4.83-2.15-5.94-11.78-2.1a5.25,5.25,0,0,1-4.24-6.09L111.06,56A5.24,5.24,0,0,1,117.14,51.78Z"/><path class="cls-3" d="M120.83,63.62a4.95,4.95,0,0,1,9.64-.46,4.95,4.95,0,1,1,7,6.83h0l-.12.08-.12.09-9.16,6.38-6.28-9A4.93,4.93,0,0,1,120.83,63.62Z"/><path class="cls-7" d="M71.76,39.43,93.1,33.24a3.86,3.86,0,0,1,4.78,2.63l3.17,10.94a3.85,3.85,0,0,1-2.62,4.78L90,54l-1.11,4.5-3.35-3.21-8.44,2.45a3.85,3.85,0,0,1-4.77-2.63L69.13,44.21A3.85,3.85,0,0,1,71.76,39.43Z"/><path class="cls-3" d="M78,46a3.64,3.64,0,0,1,2.49-4.51,3.6,3.6,0,0,1,3.71,1.07,3.64,3.64,0,1,1,6.84,2.22h0l0,.09S91,45,91,45L87,52.18,80,48.29A3.62,3.62,0,0,1,78,46Z"/><path class="cls-7" d="M433.59,67.28l30.25,11.47A5.6,5.6,0,0,1,467.1,86l-5.88,15.51a5.61,5.61,0,0,1-7.23,3.26l-12-4.54-5.23,4.27-1.08-6.66-12-4.54a5.6,5.6,0,0,1-3.25-7.23l5.87-15.51A5.61,5.61,0,0,1,433.59,67.28Z"/><path class="cls-3" d="M452.62,84.36l-3.45-1.31a8.86,8.86,0,0,0,2.58-3.71,1.4,1.4,0,0,0-2.47-1.3A7,7,0,0,1,446,80.69a4.14,4.14,0,0,1-3,0h0A2.3,2.3,0,0,0,440,82l-3.25,8.59a2.29,2.29,0,0,0,1.33,3l9.65,3.66a2.61,2.61,0,0,0,3.36-1.51l3-8A2.6,2.6,0,0,0,452.62,84.36Z"/><rect class="cls-3" x="433.27" y="79.65" width="4.12" height="11.06" rx="0.37" transform="translate(58.43 -148.74) rotate(20.75)"/><path class="cls-7" d="M368.76,67.83l23.38-8.3a4.31,4.31,0,0,1,5.49,2.62l4.26,12a4.31,4.31,0,0,1-2.62,5.49L390,82.91,389.09,88l-3.94-3.36-9.25,3.29a4.3,4.3,0,0,1-5.49-2.62l-4.26-12A4.31,4.31,0,0,1,368.76,67.83Z"/><path class="cls-3" d="M388.36,68.38l-2.67,1a6.75,6.75,0,0,0-.33-3.45,1.08,1.08,0,0,0-2.09.46,5.38,5.38,0,0,1-.6,3.18A3.17,3.17,0,0,1,380.9,71h0a1.76,1.76,0,0,0-1.07,2.25l2.35,6.64A1.77,1.77,0,0,0,384.43,81l7.46-2.65a2,2,0,0,0,1.21-2.55l-2.2-6.19A2,2,0,0,0,388.36,68.38Z"/><rect class="cls-3" x="377.08" y="73.2" width="3.16" height="8.48" rx="0.37" transform="matrix(0.94, -0.33, 0.33, 0.94, -4.08, 131.16)"/><path class="cls-7" d="M409.79,28.33,426.15,33a2.94,2.94,0,0,1,2,3.63L425.82,45a3,3,0,0,1-3.64,2l-6.48-1.83-2.54,2.48-.87-3.44-6.47-1.83a3,3,0,0,1-2-3.64l2.37-8.39A2.94,2.94,0,0,1,409.79,28.33Z"/><path class="cls-3" d="M420.53,36.4l-1.87-.53a4.68,4.68,0,0,0,1.19-2.06.74.74,0,0,0-1.36-.57,3.68,3.68,0,0,1-1.59,1.54,2.19,2.19,0,0,1-1.59.14h0a1.2,1.2,0,0,0-1.49.84L412.5,40.4a1.21,1.21,0,0,0,.84,1.49l5.22,1.48a1.38,1.38,0,0,0,1.69-.95l1.22-4.34A1.36,1.36,0,0,0,420.53,36.4Z"/><rect class="cls-3" x="410.43" y="34.71" width="2.16" height="5.82" rx="0.37" transform="translate(25.72 -110.44) rotate(15.77)"/><rect class="cls-8" x="46.75" y="148.11" width="295.07" height="197.3" rx="15.25"/><rect class="cls-9" x="54.19" y="156.6" width="280.19" height="170.01" rx="5.99"/><path class="cls-9" d="M357.17,332.44a26,26,0,0,1-26,26H57.35a26,26,0,0,1-26-26Z"/><path class="cls-8" d="M336.39,332.76H222.68c0-.11,0-.21,0-.32H165.85c0,.11,0,.21,0,.32H52.16s60.12,1.8,114.39,2.33a5.58,5.58,0,0,0,4.92,3H217.1a5.57,5.57,0,0,0,4.91-3C276.28,334.56,336.39,332.76,336.39,332.76Z"/><path class="cls-8" d="M352,348a26,26,0,0,1-20.79,10.41H57.35A25.89,25.89,0,0,1,36.57,348Z"/><polygon class="cls-9" points="72.67 330.59 58.99 330.59 56.97 332.76 74.69 332.76 72.67 330.59"/><polygon class="cls-9" points="89.79 330.59 76.11 330.59 74.09 332.76 91.82 332.76 89.79 330.59"/><polygon class="cls-9" points="106.92 330.59 93.24 330.59 91.22 332.76 108.94 332.76 106.92 330.59"/><polygon class="cls-9" points="124.05 330.59 110.37 330.59 108.34 332.76 126.07 332.76 124.05 330.59"/><polygon class="cls-9" points="141.17 330.59 127.5 330.59 125.47 332.76 143.2 332.76 141.17 330.59"/><polygon class="cls-9" points="158.3 330.59 144.62 330.59 142.6 332.76 160.32 332.76 158.3 330.59"/><polygon class="cls-9" points="175.43 330.59 161.75 330.59 159.72 332.76 177.45 332.76 175.43 330.59"/><polygon class="cls-9" points="192.55 330.59 178.88 330.59 176.85 332.76 194.58 332.76 192.55 330.59"/><polygon class="cls-9" points="209.68 330.59 196 330.59 193.98 332.76 211.71 332.76 209.68 330.59"/><polygon class="cls-9" points="226.81 330.59 213.13 330.59 211.1 332.76 228.83 332.76 226.81 330.59"/><polygon class="cls-9" points="243.93 330.59 230.25 330.59 228.23 332.76 245.96 332.76 243.93 330.59"/><polygon class="cls-9" points="261.06 330.59 247.38 330.59 245.36 332.76 263.08 332.76 261.06 330.59"/><polygon class="cls-9" points="278.19 330.59 264.51 330.59 262.49 332.76 280.21 332.76 278.19 330.59"/><polygon class="cls-9" points="295.31 330.59 281.63 330.59 279.61 332.76 297.34 332.76 295.31 330.59"/><polygon class="cls-9" points="312.44 330.59 298.76 330.59 296.74 332.76 314.46 332.76 312.44 330.59"/><polygon class="cls-9" points="329.57 330.59 315.89 330.59 313.87 332.76 331.59 332.76 329.57 330.59"/><rect class="cls-6" x="72.93" y="168.25" width="86.36" height="52.85"/><rect class="cls-3" x="70.05" y="164.96" width="86.36" height="52.85"/><rect class="cls-2" x="73.35" y="168.46" width="79.76" height="45.85"/><polygon class="cls-3" points="75.8 212.31 151.71 212.31 129.95 179.55 104.86 204.63 93.04 195.57 75.8 212.31"/><path class="cls-3" d="M109.08,185.47a4.19,4.19,0,1,1-4.19-4.19A4.19,4.19,0,0,1,109.08,185.47Z"/><rect class="cls-6" x="72.93" y="230.9" width="86.36" height="52.85"/><rect class="cls-3" x="70.05" y="227.61" width="86.36" height="52.85"/><rect class="cls-2" x="73.35" y="231.1" width="79.76" height="45.85"/><rect class="cls-7" x="76.31" y="272.71" width="73.82" height="1.92"/><rect class="cls-3" x="76.31" y="272.71" width="33.92" height="1.92"/><circle class="cls-7" cx="113.23" cy="252.13" r="14.76"/><polygon class="cls-3" points="123.78 252.13 115.33 257 106.89 261.88 106.89 252.13 106.89 242.37 115.33 247.25 123.78 252.13"/><path class="cls-6" d="M84.9,295.5a6.29,6.29,0,1,0,6.29,6.29A6.3,6.3,0,0,0,84.9,295.5Z"/><path class="cls-3" d="M83.56,306.76a6.29,6.29,0,1,1,6.29-6.29A6.29,6.29,0,0,1,83.56,306.76Z"/><path class="cls-10" d="M87.18,298.18a3.89,3.89,0,0,1-.74.21c.12,0,.29-.24.36-.33a1.24,1.24,0,0,0,.25-.45,0,0,0,0,0,0,0h0a3.91,3.91,0,0,1-.88.34s0,0-.06,0l-.08-.08a1.45,1.45,0,0,0-.43-.26,1.59,1.59,0,0,0-.65-.11,1.61,1.61,0,0,0-1.12.59,1.61,1.61,0,0,0-.3.6,1.49,1.49,0,0,0,0,.63s0,0,0,0a4.71,4.71,0,0,1-3-1.54s0,0-.08,0a1.53,1.53,0,0,0,.26,1.81l.19.16a1.37,1.37,0,0,1-.59-.16s0,0,0,0a.49.49,0,0,0,0,.17,1.55,1.55,0,0,0,1,1.24,1.17,1.17,0,0,0,.2.06,2.18,2.18,0,0,1-.58,0s0,0,0,0a1.64,1.64,0,0,0,1.2,1,.5.5,0,0,1,.17,0h0a2,2,0,0,1-.82.43,3,3,0,0,1-1.25.16h-.1s0,0,0,.05l.26.15a4.22,4.22,0,0,0,.83.33,4.44,4.44,0,0,0,4.31-1,4.51,4.51,0,0,0,1.2-3.3c0-.05,0-.08.08-.1a2.85,2.85,0,0,0,.59-.61.16.16,0,0,0,0-.12h0S87.21,298.16,87.18,298.18Z"/><path class="cls-6" d="M115.38,295.5a6.29,6.29,0,1,0,6.29,6.29A6.3,6.3,0,0,0,115.38,295.5Z"/><path class="cls-3" d="M114,306.76a6.29,6.29,0,1,1,6.29-6.29A6.29,6.29,0,0,1,114,306.76Z"/><path class="cls-11" d="M113.05,300.5v3.65a.09.09,0,0,0,.1.09h1.35a.1.1,0,0,0,.1-.09v-3.71h1a.09.09,0,0,0,.09-.09l.1-1.11a.1.1,0,0,0-.1-.11H114.6v-.79a.33.33,0,0,1,.33-.33h.76a.1.1,0,0,0,.09-.1V296.8a.09.09,0,0,0-.09-.1h-1.28a1.36,1.36,0,0,0-1.36,1.36v1.07h-.67a.1.1,0,0,0-.1.1v1.12a.09.09,0,0,0,.1.09h.67Z"/><path class="cls-6" d="M145.81,295.66a6.25,6.25,0,1,0,6.25,6.25A6.26,6.26,0,0,0,145.81,295.66Z"/><circle class="cls-10" cx="144.47" cy="300.53" r="5.47"/><path class="cls-3" d="M144.47,306.84a6.25,6.25,0,1,1,6.25-6.25A6.27,6.27,0,0,1,144.47,306.84Zm2.11-8.79a.47.47,0,1,0,.46.46A.46.46,0,0,0,146.58,298.05Zm-2.05.59a1.95,1.95,0,1,0,1.94,1.95A2,2,0,0,0,144.53,298.64Zm0,3.19a1.25,1.25,0,1,1,1.24-1.24A1.25,1.25,0,0,1,144.53,301.83Zm3.92-2.86a2.38,2.38,0,0,0-2.37-2.37H143a2.37,2.37,0,0,0-2.37,2.37v3.13a2.37,2.37,0,0,0,2.37,2.37h3.13a2.38,2.38,0,0,0,2.37-2.37Zm-.75,3.13a1.63,1.63,0,0,1-1.62,1.63H143a1.63,1.63,0,0,1-1.63-1.63V299a1.62,1.62,0,0,1,1.63-1.62h3.13A1.62,1.62,0,0,1,147.7,299Z"/><rect class="cls-8" x="60.21" y="164.96" width="2.51" height="153.33" rx="1.18"/><circle class="cls-12" cx="61.46" cy="237.36" r="2.2"/><rect class="cls-8" x="161.57" y="297.91" width="162.42" height="7.82" rx="3.21"/><rect class="cls-7" x="165.85" y="40.96" width="153.87" height="260.86"/><path class="cls-3" d="M189.28,67.52h-9.46V64.2h23v3.32h-9.49v27h-4.06Z"/><rect class="cls-13" x="221.12" y="55.8" width="37.49" height="2.14"/><rect class="cls-13" x="221.12" y="63.08" width="37.49" height="2.14"/><rect class="cls-13" x="221.12" y="70.37" width="37.49" height="2.14"/><rect class="cls-13" x="221.12" y="77.66" width="37.49" height="2.14"/><rect class="cls-13" x="221.12" y="84.95" width="37.49" height="2.14"/><rect class="cls-13" x="267.15" y="55.8" width="37.49" height="2.14"/><rect class="cls-13" x="267.15" y="63.08" width="37.49" height="2.14"/><rect class="cls-13" x="267.15" y="70.37" width="37.49" height="2.14"/><rect class="cls-13" x="267.15" y="77.66" width="37.49" height="2.14"/><rect class="cls-13" x="267.15" y="84.95" width="37.49" height="2.14"/><rect class="cls-13" x="221.12" y="99.84" width="37.49" height="2.14"/><rect class="cls-13" x="221.12" y="107.13" width="37.49" height="2.14"/><rect class="cls-13" x="221.12" y="114.42" width="37.49" height="2.14"/><rect class="cls-13" x="221.12" y="121.71" width="37.49" height="2.14"/><rect class="cls-13" x="221.12" y="128.99" width="37.49" height="2.14"/><rect class="cls-13" x="267.15" y="99.84" width="37.49" height="2.14"/><rect class="cls-13" x="267.15" y="107.13" width="37.49" height="2.14"/><rect class="cls-13" x="267.15" y="114.42" width="37.49" height="2.14"/><rect class="cls-13" x="267.15" y="121.71" width="37.49" height="2.14"/><rect class="cls-13" x="267.15" y="128.99" width="37.49" height="2.14"/><rect class="cls-3" x="179.87" y="147.42" width="124.77" height="5.36"/><rect class="cls-13" x="179.36" y="165.61" width="56.23" height="2.14"/><rect class="cls-13" x="179.36" y="172.9" width="56.23" height="2.14"/><rect class="cls-13" x="179.36" y="180.19" width="56.23" height="2.14"/><rect class="cls-13" x="179.36" y="187.47" width="56.23" height="2.14"/><rect class="cls-13" x="179.36" y="194.76" width="56.23" height="2.14"/><rect class="cls-13" x="248.41" y="165.61" width="56.23" height="2.14"/><rect class="cls-13" x="248.41" y="172.9" width="56.23" height="2.14"/><rect class="cls-13" x="248.41" y="180.19" width="56.23" height="2.14"/><rect class="cls-13" x="248.41" y="187.47" width="56.23" height="2.14"/><rect class="cls-13" x="248.41" y="194.76" width="56.23" height="2.14"/><rect class="cls-13" x="179.36" y="210.55" width="56.23" height="2.14"/><rect class="cls-13" x="179.36" y="217.83" width="56.23" height="2.14"/><rect class="cls-13" x="179.36" y="225.12" width="56.23" height="2.14"/><rect class="cls-13" x="179.36" y="232.41" width="56.23" height="2.14"/><rect class="cls-13" x="179.36" y="239.7" width="56.23" height="2.14"/><rect class="cls-13" x="248.41" y="210.55" width="56.23" height="2.14"/><rect class="cls-13" x="248.41" y="217.83" width="56.23" height="2.14"/><rect class="cls-13" x="248.41" y="225.12" width="56.23" height="2.14"/><rect class="cls-13" x="248.41" y="232.41" width="56.23" height="2.14"/><rect class="cls-13" x="248.41" y="239.7" width="56.23" height="2.14"/><rect class="cls-13" x="179.36" y="255.48" width="56.23" height="2.14"/><rect class="cls-13" x="179.36" y="262.77" width="56.23" height="2.14"/><rect class="cls-13" x="179.36" y="270.06" width="56.23" height="2.14"/><rect class="cls-13" x="179.36" y="277.34" width="56.23" height="2.14"/><rect class="cls-13" x="179.36" y="284.63" width="56.23" height="2.14"/><rect class="cls-3" x="179.36" y="107.4" width="30.73" height="2.42"/><rect class="cls-3" x="179.36" y="114.66" width="30.73" height="2.42"/><rect class="cls-3" x="179.36" y="121.91" width="30.73" height="2.42"/><circle class="cls-13" cx="234.87" cy="294.39" r="1.56"/><circle class="cls-13" cx="242.25" cy="294.39" r="1.56"/><circle class="cls-13" cx="249.64" cy="294.39" r="1.56"/><polyline class="cls-14" points="306.63 288.94 250.33 288.94 250.33 254.5 306.63 254.5"/><rect class="cls-3" x="248.45" y="252.35" width="56.3" height="34.45"/><rect class="cls-2" x="250.6" y="254.63" width="51.99" height="29.89"/><polygon class="cls-3" points="252.2 283.21 301.69 283.21 287.5 261.86 271.15 278.21 263.44 272.3 252.2 283.21"/><path class="cls-3" d="M273.9,265.72a2.73,2.73,0,1,1-2.73-2.73A2.72,2.72,0,0,1,273.9,265.72Z"/><path d="M391.58,351.07c-6.58,4.83-18.95,3.51-18.84,9.49,14.5,1.54,21.79-1.94,21.79-1.94l0,1.92,5.06-.64a21.43,21.43,0,0,0-.6-8.83Z"/><path class="cls-15" d="M406.73,244c-4.3,15-9.25,32-13.3,48.11l4.62,48.53,1,10.45s-4,3.53-7.73.2c0,0-1.11-3.78-2.69-9.55-3.91-14.44-10.68-41.43-10-53.38.9-16.73,8.75-68.51,8.75-68.51l22.79,3.8Z"/><path class="cls-7" d="M399,351.06s-4,3.53-7.73.2c0,0-1.11-3.78-2.69-9.55l9.43-1.1Z"/><path class="cls-15" d="M447.84,354.31c-3.12,2.41-4.25,2.41-7.7.72-1.22-3.79-2.46-7.73-3.71-11.77-13.67-44-28.94-99.39-29.7-99.29l-1.86-20.69,23.65-1.93c7.69,62.48,14,102.36,17.18,120.85C447.09,350.3,447.84,354.31,447.84,354.31Z"/><path class="cls-7" d="M447.84,354.31c-3.12,2.41-4.25,2.41-7.7.72-1.22-3.79-2.46-7.73-3.71-11.77l9.27-1.06C447.09,350.3,447.84,354.31,447.84,354.31Z"/><path d="M445.69,353.22a8.85,8.85,0,0,0-4.66.62,2.92,2.92,0,0,0-1.56,1.17c-.56,1.25-1.72,2.52-1.52,4.25s4.19,2.48,6.52,2.48,7-1.28,7.13-3.08-1.78-4.4-3.46-5A12.66,12.66,0,0,0,445.69,353.22Z"/><path class="cls-9" d="M406.82,244.62,395.16,289.9l-17.88-3.64s3.91-45.79,7.39-63.82l44.64,1.13,8.62,60.25-18.4,4.46Z"/><path class="cls-8" d="M377,281.12l-.45,5.24a.94.94,0,0,0,.58,1,48,48,0,0,0,17.68,3.37,1,1,0,0,0,.89-.7l1.57-5.75a.94.94,0,0,0-.64-1.15A84.84,84.84,0,0,0,378,280.26,1,1,0,0,0,377,281.12Z"/><path class="cls-8" d="M417.79,283.56l1.47,5.05a1,1,0,0,0,.89.68,47.91,47.91,0,0,0,17.7-3.26,1,1,0,0,0,.58-1l-.63-5.94a.94.94,0,0,0-1-.84,85.13,85.13,0,0,0-18.39,4.11A1,1,0,0,0,417.79,283.56Z"/><path class="cls-8" d="M407.06,225.81c.09-.76-1.11-.76-1.2,0a74.83,74.83,0,0,0,0,16.32c.08.76,1.28.77,1.2,0A74.83,74.83,0,0,1,407.06,225.81Z"/><path class="cls-8" d="M404.65,240.42a21.15,21.15,0,0,1-1.48-14.67.6.6,0,0,0-1.15-.32A22.41,22.41,0,0,0,403.61,241C404,241.72,405,241.11,404.65,240.42Z"/><path class="cls-15" d="M417.21,149.85s-18.39,22.07-81.69,34l-1.29-7.45s39.93-9.8,63.74-28.27Z"/><path class="cls-15" d="M328.1,174.62c-.53,0-1.35,0-1.65.56a1,1,0,0,0,.69,1.33,18,18,0,0,0,2.34.48l.77.15a15.18,15.18,0,0,1-4.79.54,15.38,15.38,0,0,1-3.09-.46c-.78-.2-1.72-.48-2.32.24a1,1,0,0,0-.13,1.16A1.31,1.31,0,0,0,320,180a1.81,1.81,0,0,0,.29.33.39.39,0,0,0-.15.52,3.59,3.59,0,0,0,1.52,1.47.39.39,0,0,0,.16.41,12.87,12.87,0,0,0,10,2.34,9.73,9.73,0,0,0,4.76-2.06c1.51-1.43,1.12-3.55.63-5.34l-.06-.13a.39.39,0,0,0-.09-.6A15.15,15.15,0,0,0,328.1,174.62Z"/><path class="cls-3" d="M398.1,148s-19.83,12.74-29.87,16.15l6.75,9.89s17.28-6,22.48-9.65Z"/><path class="cls-4" d="M369.12,163.43l-3.71,1.31a.88.88,0,0,0-.56,1.09c.59,2,2.38,7,5.91,9.93a.89.89,0,0,0,.9.14l4.21-1.66a.88.88,0,0,0,.49-1.17c-.77-1.87-2.89-6.44-6.34-9.47A.9.9,0,0,0,369.12,163.43Z"/><path class="cls-2" d="M410,146.14l-10.29,2.16s-7.72,24.76-13.15,75.4c30.57,10,42.12,4,42.12,4-1.47-13.57,3.81-72.22.59-76.16-2.91-1.55-9.51-4.3-9.51-4.3Z"/><path class="cls-3" d="M412.82,231.54c2.56-17.63,6.9-84.35,6.9-84.35s7.93,2.61,10.57,4.86-.53,56.06.81,77.78C425.65,231.94,418.5,232.23,412.82,231.54Z"/><path class="cls-4" d="M428.71,225.28a60,60,0,0,1-13.63,1.1c-.64,0-.64,1,0,1a61.77,61.77,0,0,0,13.9-1.14C429.61,226.11,429.34,225.15,428.71,225.28Z"/><path class="cls-3" d="M410,146.14s-9.38,1-11.82,1.86-15.35,70.26-16.25,77.24a38.91,38.91,0,0,0,18.25,5.83S407.23,166.23,410,146.14Z"/><path class="cls-4" d="M398.18,225.18a44.94,44.94,0,0,1-13.77-4.48c-.57-.3-1.07.56-.5.86a45.86,45.86,0,0,0,14,4.58C398.54,226.24,398.81,225.28,398.18,225.18Z"/><path class="cls-4" d="M399.18,213.79a1,1,0,0,0,0,2A1,1,0,0,0,399.18,213.79Z"/><path class="cls-4" d="M400.1,208.44a1,1,0,0,0,0,2A1,1,0,0,0,400.1,208.44Z"/><path class="cls-4" d="M400.86,203.47a1,1,0,0,0,0,2A1,1,0,0,0,400.86,203.47Z"/><path class="cls-4" d="M401.47,199a1,1,0,0,0,0,2A1,1,0,0,0,401.47,199Z"/><path class="cls-16" d="M429.83,125.16A45.41,45.41,0,0,1,423,135.77c-1,1.12-2.18,2.48-3.83,2.34s-2.66-1.8-3.35-3.24c-3.12-6.61-10.85-9.4-14.07-16a10.8,10.8,0,0,1-1-3,3.68,3.68,0,0,1-1.24-3.29,10.9,10.9,0,0,1,8.7-10,1.84,1.84,0,0,0,.08,1.2,14,14,0,0,1,6.76-1.42,1.34,1.34,0,0,0,0,1.22,11.41,11.41,0,0,1,6.08-.77,1.05,1.05,0,0,0-.51.81,8.38,8.38,0,0,1,4.2,1.31,4,4,0,0,1,1.82,3.63,6.88,6.88,0,0,1,3.35,3.76,14.27,14.27,0,0,1,.74,5C430.75,119.89,430.92,122.81,429.83,125.16Z"/><path class="cls-15" d="M424.6,113.73c-3.54-8.56-19.34-7.47-21.24-1.18-3.9,12.94-2.6,18.57.73,22.09,3.86,4.07,6.68,3.91,5.87,11.5,0,6.21,7.27,5.42,9.76,1.05A46,46,0,0,1,425,129.88S426.05,117.25,424.6,113.73Z"/><path d="M413.78,125.16a1,1,0,1,1-2-.22,1,1,0,1,1,2,.22Z"/><path class="cls-10" d="M412.82,124.78a.35.35,0,0,1-.4.32.36.36,0,0,1-.33-.4.35.35,0,0,1,.4-.32A.37.37,0,0,1,412.82,124.78Z"/><path d="M406.1,124.33a1,1,0,1,1-2-.22,1,1,0,0,1,2,.22Z"/><path class="cls-10" d="M405.13,124a.35.35,0,0,1-.4.32.37.37,0,0,1-.33-.4.37.37,0,0,1,.73.08Z"/><path class="cls-16" d="M407.18,120.51a3.28,3.28,0,0,0-4.07-.24.66.66,0,0,0-.18.81.48.48,0,0,0,.71.18,2.36,2.36,0,0,1,1.76-.37,2.39,2.39,0,0,1,.85.33c.24.15.45.39.75.26a.62.62,0,0,0,.19-.14A.66.66,0,0,0,407.18,120.51Z"/><path class="cls-16" d="M411.06,120.93a4.15,4.15,0,0,1,4.61.7.59.59,0,0,1,0,.83.6.6,0,0,1-.83,0,3,3,0,0,0-1.89-.77,3.34,3.34,0,0,0-1,.13c-.3.09-.6.27-.9.08a.58.58,0,0,1-.17-.18A.59.59,0,0,1,411.06,120.93Z"/><path class="cls-17" d="M407,127.16a.13.13,0,0,1-.11-.11c-.16-.87.16-1.13.45-1.19a1.29,1.29,0,0,1,1,.33.13.13,0,0,1,0,.19.14.14,0,0,1-.18,0,1,1,0,0,0-.79-.29c-.27.06-.35.36-.26.9a.13.13,0,0,1-.1.15Z"/><path class="cls-18" d="M410.41,130.28a1.82,1.82,0,1,1-1.44-2.46A2,2,0,0,1,410.41,130.28Z"/><path class="cls-19" d="M410.26,130.87a2.9,2.9,0,0,0-.82-.23c-1.09-.15-2.05.26-2.14.91v0a1.54,1.54,0,0,0,1.06.68A1.88,1.88,0,0,0,410.26,130.87Z"/><path class="cls-10" d="M409,127.82a1.52,1.52,0,0,0-1.15.33,1.36,1.36,0,0,0,1,.59,1.38,1.38,0,0,0,1.15-.28A1.54,1.54,0,0,0,409,127.82Z"/><path class="cls-16" d="M401.93,116.38s-.85-3,3.22-7.48c2.6-2.84,9.29-2.9,14.81-1.25s7.7,4.36,7.45,8.42-.39,9.15-.39,9.15l-2.36,1.43c-1.57-1.59-1.89-4.17-2.15-6.38s-.69-4.64-2.38-6.1a6.76,6.76,0,0,0-6-1,42.74,42.74,0,0,0-5.89,2.39A16.38,16.38,0,0,1,401.93,116.38Z"/><path class="cls-15" d="M428.32,130.53c-1.5,1.45-3.64,1.65-4.79.46s-.85-3.33.65-4.77,3.64-1.64,4.78-.45S429.82,129.09,428.32,130.53Z"/><path class="cls-17" d="M428,126.45a2.3,2.3,0,0,0-2-.18,2,2,0,0,0-.83.52,1.15,1.15,0,0,0-.28,1,1.66,1.66,0,0,0,.48.71,1.61,1.61,0,0,1,.34.42.64.64,0,0,1-.15.68.6.6,0,0,1-.69.06.27.27,0,0,0-.36.09.25.25,0,0,0,.09.36,1.1,1.1,0,0,0,.44.15,1.15,1.15,0,0,0,.87-.27,1.13,1.13,0,0,0,.27-1.28,1.82,1.82,0,0,0-.43-.57,1.16,1.16,0,0,1-.35-.48.65.65,0,0,1,.16-.56,1.28,1.28,0,0,1,.22-.17,1.08,1.08,0,0,1,.72.33,1,1,0,0,1,.14.79.26.26,0,0,0,.18.32h0a.26.26,0,0,0,.28-.19,1.48,1.48,0,0,0-.22-1.24,1.28,1.28,0,0,0-.36-.3,1.68,1.68,0,0,1,1.17.2,1,1,0,0,1,.37,1.28.27.27,0,0,0,.09.36.27.27,0,0,0,.36-.09A1.53,1.53,0,0,0,428,126.45Z"/><path class="cls-3" d="M294.91,169.93h155a5.63,5.63,0,0,1,5.63,5.63v8.73a5.63,5.63,0,0,1-5.63,5.63h-155a0,0,0,0,1,0,0v-20A0,0,0,0,1,294.91,169.93Z" transform="translate(72.4 -105.49) rotate(17.69)"/><rect class="cls-7" x="295.38" y="166.92" width="140.84" height="19.98" transform="matrix(0.95, 0.3, -0.3, 0.95, 71.03, -102.77)"/><rect class="cls-2" x="295.38" y="173.43" width="140.84" height="6.95" transform="matrix(0.95, 0.3, -0.3, 0.95, 71.03, -102.77)"/><rect class="cls-2" x="431.5" y="188.31" width="2.79" height="19.98" transform="translate(80.7 -122.13) rotate(17.68)"/><polygon class="cls-20" points="301.74 146 295.67 165.03 275.23 150.12 270.14 146.42 276.33 146.33 301.74 146"/><path class="cls-9" d="M275.23,150.12l-5.09-3.7,6.19-.09A15,15,0,0,1,275.23,150.12Z"/><path class="cls-15" d="M430.29,152.05c-2.65,4.12-3.9,9.14-3.06,15.83,5.77,3.27,13.51,8,18.51,14.39,0,0-17.93,1.18-29.68-1.45L413.77,187s38.12,10,43.06,0S430.29,152.05,430.29,152.05Z"/><path class="cls-15" d="M404.37,192a.85.85,0,0,0,1.11-.37c.74-1.18,1.42-2.39,2-3.64a10.38,10.38,0,0,0,4.77,1,5.19,5.19,0,0,0,4.26-2.13.83.83,0,0,0,.24-.29,6,6,0,0,0,0-4.5,14.08,14.08,0,0,0-2.23-3.52c-.18-.23-.36-.46-.53-.7s-.15-.24-.22-.37l-.09-.16,0-.06-.15-.42v-.07a1.23,1.23,0,0,1,0-.2c0-.06,0-.12,0-.18s0,0,0,0v-.14a1.19,1.19,0,0,0-.05-.53,1.14,1.14,0,0,0-1.14-.78,1.49,1.49,0,0,0-1,.55,3.06,3.06,0,0,0-.61,2,5,5,0,0,0,.92,2.62l-.74-.06a70.75,70.75,0,0,0-10.89-.31.83.83,0,0,0-.77.77.81.81,0,0,0,.65.87L404,182l1.35.19-5.84,2.46c-.39.16-.65.36-.57.79s.57.56,1,.54a20.53,20.53,0,0,0,5.23-1.12c-1.12,1.1-2.45,2.57-3.61,3.61a.82.82,0,0,0,0,1.09c.29.34.74.15,1.12,0a32.63,32.63,0,0,0,3.18-2.47c-.53,1-1.23,2.87-1.84,3.84A.84.84,0,0,0,404.37,192Z"/><path class="cls-3" d="M429.65,151.56s28.12,20.29,28,34.39l-11.89-3.68s-5.94-7.29-19.07-14.38C426.67,167.89,424.88,155.94,429.65,151.56Z"/><path class="cls-4" d="M444.54,182.34l.41-1,11.65,1.05A1.55,1.55,0,0,1,458,183.6a5.22,5.22,0,0,1-1.88,5.64,1.56,1.56,0,0,1-1.82,0Z"/><polygon class="cls-3" points="266 39.94 249 53.52 205.31 10.54 210.14 5.71 181.54 0 188.31 27.5 193.4 22.42 247.94 66.46 265.77 48.81 300.03 81.92 266 39.94"/></g></g></g></svg>