<svg xmlns="http://www.w3.org/2000/svg" viewBox="0 0 500 372.56"><defs><style>.cls-1{fill:#f5f5f5;}.cls-2{fill:#ebebeb;}.cls-3{fill:#e0e0e0;}.cls-4{fill:#f0f0f0;}.cls-5{opacity:0.05;}.cls-6{fill:#fafafa;}.cls-7{fill:#e6e6e6;}.cls-21,.cls-22,.cls-8{fill:none;}.cls-8{stroke:#e0e0e0;}.cls-11,.cls-8{stroke-miterlimit:10;}.cls-15,.cls-9{fill:#407bff;}.cls-10,.cls-11,.cls-12,.cls-13,.cls-23{fill:#fff;}.cls-10{opacity:0.8;}.cls-11{stroke:#407bff;}.cls-13{opacity:0.5;}.cls-14,.cls-15{opacity:0.1;}.cls-16,.cls-23{opacity:0.2;}.cls-17{fill:#263238;}.cls-18{fill:#ff8b7b;}.cls-19{opacity:0.3;}.cls-20{fill:#ff5652;}.cls-21,.cls-22{stroke:#263238;stroke-linecap:round;stroke-linejoin:round;}.cls-21{stroke-width:0.5px;}.cls-22{stroke-width:0.75px;}</style></defs><g id="Layer_2" data-name="Layer 2"><g id="Character"><ellipse id="shape" class="cls-1" cx="250" cy="361.24" rx="193.89" ry="11.32"/><rect class="cls-2" y="327.4" width="500" height="0.25"/><rect class="cls-2" x="102.02" y="343.49" width="33.12" height="0.25"/><rect class="cls-2" x="171.14" y="335.92" width="43.55" height="0.25"/><rect class="cls-2" x="52.46" y="334.21" width="48.56" height="0.25"/><rect class="cls-2" x="247.61" y="337.59" width="34.29" height="0.25"/><rect class="cls-2" x="290.8" y="337.59" width="48.57" height="0.25"/><rect class="cls-2" x="326.62" y="341.81" width="93.68" height="0.25"/><path class="cls-2" d="M237,282.8H43.91a5.71,5.71,0,0,1-5.7-5.71V5.66A5.71,5.71,0,0,1,43.91,0H237a5.71,5.71,0,0,1,5.71,5.71h0V277.09A5.71,5.71,0,0,1,237,282.8ZM43.91.2a5.46,5.46,0,0,0-5.45,5.46V277.09a5.46,5.46,0,0,0,5.45,5.46H237a5.48,5.48,0,0,0,5.46-5.46V5.66A5.48,5.48,0,0,0,237,.2Z"/><path class="cls-2" d="M453.31,282.8H260.21a5.73,5.73,0,0,1-5.71-5.71V5.66A5.72,5.72,0,0,1,260.21,0h193.1A5.71,5.71,0,0,1,459,5.66V277.09A5.7,5.7,0,0,1,453.31,282.8ZM260.21.2a5.48,5.48,0,0,0-5.46,5.46V277.09a5.48,5.48,0,0,0,5.46,5.46h193.1a5.48,5.48,0,0,0,5.46-5.46V5.66A5.48,5.48,0,0,0,453.31.2Z"/><rect class="cls-3" x="122.25" y="99.24" width="97.77" height="228.16"/><rect class="cls-4" x="107.45" y="99.24" width="97.77" height="228.16"/><rect class="cls-3" x="116.93" y="272.95" width="79.55" height="41.3"/><rect class="cls-3" x="116.93" y="218.78" width="79.55" height="41.31"/><rect class="cls-3" x="116.93" y="164.62" width="79.55" height="41.31"/><rect class="cls-3" x="116.93" y="110.46" width="79.55" height="41.31"/><rect class="cls-5" x="116.93" y="110.46" width="16.62" height="41.31"/><rect class="cls-5" x="116.93" y="164.62" width="16.62" height="41.31"/><rect class="cls-5" x="116.93" y="218.78" width="16.62" height="41.31"/><rect class="cls-5" x="116.93" y="272.95" width="16.62" height="41.3"/><rect class="cls-3" x="60" y="23.77" width="69.85" height="69.85"/><rect class="cls-2" x="56.34" y="23.77" width="69.85" height="69.85"/><rect class="cls-1" x="64.38" y="31.81" width="53.78" height="53.78"/><rect class="cls-3" x="64.38" y="31.81" width="1.78" height="53.78"/><circle class="cls-6" cx="91.96" cy="58.69" r="10.66" transform="translate(-14.87 80.83) rotate(-44.26)"/><path class="cls-1" d="M56.16,310.49s-5.51-4.75-9.32-15.62S34.2,271.54,34.2,271.54,45.75,277,49.82,287.39c0,0-5-21.06-15.62-28.76,0,0,19,6.12,23.77,25.93,0,0,3.17-15.73-2-31.36,0,0,9.73,12.23,10.87,27.4,0,0,1.35-26.27,10-34,0,0-2.72,23.78,0,35.78,0,0,3.85-21.06,21.06-24,0,0-11.1,13.36-10.64,25.13a26,26,0,0,1,21.06-14.71S96,277.43,94.89,291.47s-1.14,18.34-8.61,20.38S56.16,310.49,56.16,310.49Z"/><path class="cls-7" d="M44.21,297.64V325s3.52,9.8,26.13,11.06,27.89-10.81,27.89-10.81V297.64Z"/><rect class="cls-3" x="303.95" y="220.28" width="141.65" height="107.95"/><rect class="cls-2" x="268.68" y="220.28" width="141.65" height="107.95"/><rect class="cls-8" x="273.74" y="230.27" width="129.54" height="39.99"/><rect class="cls-8" x="273.74" y="276.92" width="129.54" height="39.99"/><circle class="cls-3" cx="338.51" cy="250.26" r="3.63"/><circle class="cls-3" cx="338.51" cy="299.96" r="3.63"/><rect class="cls-3" x="262.44" y="214.52" width="188.43" height="5.76"/><rect class="cls-5" x="415.68" y="214.52" width="35.19" height="5.76"/><rect class="cls-3" x="291.95" y="53.52" width="156.88" height="88.7"/><rect class="cls-4" x="287.85" y="53.52" width="156.88" height="88.7"/><rect class="cls-1" x="293.97" y="60.22" width="144.16" height="75.73"/><rect class="cls-3" x="293.97" y="60.22" width="1.57" height="75.73"/><rect class="cls-6" x="408.83" y="80.28" width="19.47" height="15.91" transform="translate(57.72 -141.5) rotate(20.58)"/><circle class="cls-7" cx="413.62" cy="80.41" r="0.69"/><polygon class="cls-6" points="342.8 103.73 381.58 107.63 379.21 123.05 341.87 118.58 342.8 103.73"/><path class="cls-7" d="M379.55,110.46a.69.69,0,1,1-.69-.69A.69.69,0,0,1,379.55,110.46Z"/><polygon class="cls-2" points="364 214.52 372.57 170.72 412.7 170.72 404.36 214.52 364 214.52"/><polygon class="cls-6" points="370.11 209.03 376.53 176.21 406.6 176.21 400.35 209.03 370.11 209.03"/><polygon class="cls-7" points="378.08 176.21 371.86 209.03 370.11 209.03 376.53 176.21 378.08 176.21"/><polygon class="cls-7" points="412.7 170.72 414.36 170.72 406.6 214.52 404.36 214.52 412.7 170.72"/><polygon class="cls-3" points="411.52 186.7 417.21 214.52 406.6 214.52 411.52 186.7"/><path class="cls-9" d="M324.2,45.28V165.07a14.81,14.81,0,0,1-14.81,14.82H297.5V45.28Z"/><path class="cls-10" d="M324.2,45.28V165.07a14.81,14.81,0,0,1-14.81,14.82H297.5V45.28Z"/><path class="cls-11" d="M324.2,36.18V165.07a14.81,14.81,0,0,1-14.81,14.82H100.06a14.82,14.82,0,0,1-14.82-14.82V36.18a14.81,14.81,0,0,1,14.82-14.82H309.39A14.81,14.81,0,0,1,324.2,36.18Z"/><path class="cls-9" d="M323.52,31.73H85.92a14.82,14.82,0,0,1,14.14-10.37H309.39A14.82,14.82,0,0,1,323.52,31.73Z"/><circle class="cls-12" cx="115.44" cy="26.55" r="2.1"/><circle class="cls-12" cx="122.94" cy="26.55" r="2.1"/><path class="cls-12" d="M132.53,26.55a2.11,2.11,0,1,1-2.1-2.11A2.1,2.1,0,0,1,132.53,26.55Z"/><path class="cls-9" d="M324.2,36.18v9.1h-239v-9.1a14.89,14.89,0,0,1,.68-4.45h237.6A14.89,14.89,0,0,1,324.2,36.18Z"/><path class="cls-13" d="M324.2,36.18v9.1h-239v-9.1a14.89,14.89,0,0,1,.68-4.45h237.6A14.89,14.89,0,0,1,324.2,36.18Z"/><path class="cls-9" d="M113.35,45.28V179.89H99.73a15.13,15.13,0,0,1-14.49-10.38V45.28Z"/><path class="cls-14" d="M113.35,45.28V179.89H99.73a15.13,15.13,0,0,1-14.49-10.38V45.28Z"/><rect class="cls-15" x="122.94" y="54.82" width="165.19" height="111.49"/><rect class="cls-16" x="89.55" y="60.44" width="7.1" height="7.1"/><rect class="cls-16" x="100.3" y="60.44" width="7.1" height="7.1"/><rect class="cls-16" x="89.55" y="71.7" width="7.1" height="7.1"/><rect class="cls-16" x="100.3" y="71.7" width="7.1" height="7.1"/><rect class="cls-16" x="89.55" y="82.96" width="7.1" height="7.1"/><rect class="cls-16" x="100.3" y="82.96" width="7.1" height="7.1"/><rect class="cls-16" x="89.55" y="94.22" width="7.1" height="7.1"/><rect class="cls-16" x="100.3" y="94.22" width="7.1" height="7.1"/><rect class="cls-16" x="89.55" y="105.47" width="7.1" height="7.1"/><rect class="cls-16" x="100.3" y="105.47" width="7.1" height="7.1"/><rect class="cls-16" x="89.55" y="116.73" width="7.1" height="7.1"/><rect class="cls-16" x="100.3" y="116.73" width="7.1" height="7.1"/><path class="cls-17" d="M96.42,127.67a.81.81,0,1,1-.8-.81A.8.8,0,0,1,96.42,127.67Z"/><path class="cls-17" d="M99.33,127.67a.81.81,0,1,1-.81-.81A.8.8,0,0,1,99.33,127.67Z"/><path class="cls-17" d="M102.23,127.67a.81.81,0,1,1-.8-.81A.8.8,0,0,1,102.23,127.67Z"/><polygon class="cls-17" points="201.1 120.08 199.83 120.97 199.07 115.42 203.7 118.24 202.55 119.02 204.34 121.66 202.93 122.82 201.1 120.08"/><path class="cls-18" d="M298.1,181.09S293,205.71,289.55,212s-23.23,6-23.23,6l-22.9-1.14s-4.36-14.27,14.31-6.87c0,0,15.75-3,21.76-8l6.3-25.83Z"/><polygon class="cls-9" points="366.25 364.63 360.14 364.63 343.56 274.44 342.99 271.33 348.89 270.24 349.66 274.44 366.25 364.63"/><polygon class="cls-13" points="366.25 364.63 360.14 364.63 343.56 274.44 342.99 271.33 348.89 270.24 349.66 274.44 366.25 364.63"/><polygon class="cls-9" points="339.9 364.63 333.87 364.63 325.59 274.44 324.71 264.84 324.51 262.71 330.48 262.16 330.73 264.84 331.61 274.44 339.9 364.63"/><polygon class="cls-13" points="339.9 364.63 333.87 364.63 325.59 274.44 324.71 264.84 324.51 262.71 330.48 262.16 330.73 264.84 331.61 274.44 339.9 364.63"/><polygon class="cls-9" points="278.24 265.98 277.6 274.44 270.74 364.63 264.72 364.63 271.57 274.44 272.25 265.53 278.24 265.98"/><polygon class="cls-13" points="278.24 265.98 277.6 274.44 270.74 364.63 264.72 364.63 271.57 274.44 272.25 265.53 278.24 265.98"/><polygon class="cls-9" points="260.85 266.25 259.5 274.44 244.63 364.63 238.55 364.63 253.43 274.44 254.94 265.27 260.85 266.25"/><polygon class="cls-13" points="260.85 266.25 259.5 274.44 244.63 364.63 238.55 364.63 253.43 274.44 254.94 265.27 260.85 266.25"/><path class="cls-9" d="M358.92,263.43l-.55,1.41-2.63,6.65a4.62,4.62,0,0,1-4.33,2.95H252.35a4.67,4.67,0,0,1-4.4-3.08l-2.33-6.52-.55-1.55a4.65,4.65,0,0,1,4.39-6.22H354.59A4.65,4.65,0,0,1,358.92,263.43Z"/><path class="cls-19" d="M358.37,264.84l-2.63,6.65a4.62,4.62,0,0,1-4.33,2.95H252.35a4.67,4.67,0,0,1-4.4-3.08l-2.33-6.52Z"/><path class="cls-17" d="M258.05,322.34l4.68-10.63a2.79,2.79,0,0,1,3.33-1.56l7.4,2.1a2.81,2.81,0,0,1,1.79,3.85c-2,4.52-5.8,12.94-7,15.95-1.63,4.19-3,9.24-5.18,10.65a2.91,2.91,0,0,1-.42.23,2.77,2.77,0,0,1-3.78-3.05c.58-3.52,1.21-10.1-.91-15.41A2.72,2.72,0,0,1,258.05,322.34Z"/><path class="cls-17" d="M298.46,221.3s-50.55-6.9-65.82,7.46c0,0-9.46,12.91-4.91,38.18A105.28,105.28,0,0,0,246.64,310l13.27-11.28s-11.81-29.09-7.81-47.09l18.36-1.09,26.33-18,2.76-7.46Z"/><polygon class="cls-9" points="247.86 315.08 242.91 309.07 261.05 294.15 264.48 297.72 247.86 315.08"/><path class="cls-17" d="M348.15,220.75s1.4,14.4-3.17,24.94-20.72,14.4-31.61,13.7-24.94-1.6-30.91.08c0,0-7.73,43.83-21.08,75.79l-16.16-1.4S254,272,255.41,257.63s.7-16.51,9.48-23.53S318.64,217.59,348.15,220.75Z"/><polygon class="cls-18" points="257.27 341.05 255.74 347.74 242.91 352.23 246.64 337.98 257.27 341.05"/><path class="cls-17" d="M242.74,351.81l10.9-4.05a2.8,2.8,0,0,1,3.44,1.31l3.64,6.77a2.8,2.8,0,0,1-1.52,4c-4.65,1.69-13.32,4.85-16.29,6.11-4.14,1.76-8.72,4.29-11.25,3.7a3.47,3.47,0,0,1-.46-.13,2.78,2.78,0,0,1-.44-4.85c2.93-2,8.09-6.16,10.42-11.38A2.73,2.73,0,0,1,242.74,351.81Z"/><path class="cls-9" d="M298.1,224.61s-6.58-43.52-8-54.11,0-16,4-19.47,22.34-10.88,34.65-8.88,18.32,12.31,20,24l-2.86,1.43s3.66,40.56,2.33,54.59Z"/><path class="cls-9" d="M294.09,151s-9.73,8.59-9.73,25.19L299.53,182Z"/><path class="cls-18" d="M346.12,167.42s5.51,19.48,4,27.53S334.9,213.8,315.84,217.4c0,0-8.47,1.48-13.35-2.54l-7.41-2.12,2.12-6.57A39.64,39.64,0,0,1,313.51,210s18.21-8.26,23.93-14.61c0,0-.64-12.92-3.81-22Z"/><polygon class="cls-9" points="263.63 335.26 242.36 332.06 241.59 338.75 260.89 342.69 263.63 335.26"/><path class="cls-17" d="M283.43,124.18a16.32,16.32,0,0,0,.46,11.77,15.69,15.69,0,0,1,.4-9c1-2.74,2.65-5.15,3.93-7.75s2.15-5.63,1.3-8.4c-.18-.55-.58-1.19-1.15-1.1s-.69.57-.85,1a17,17,0,0,0-1.26,3.57c-.14,1,0,1.89-.14,2.86C285.65,119.57,284.26,121.79,283.43,124.18Z"/><path class="cls-17" d="M289.32,115.75a4.39,4.39,0,0,0-2.82,3.69,7.61,7.61,0,0,1-2.93-9.26c2.31-6,5.44-14.51,14.76-13.27s28.86,4,21.86,24.82-13.94-4.61-13.94-4.61Z"/><path class="cls-18" d="M309.71,154.66c-8.49-.53-4.89-7.85-4.5-10.56a5.86,5.86,0,0,0-.74-3.4,11.15,11.15,0,0,0-1.44-2.14c-3.72,0-7.84-.5-10.79-3-3.3-2.75-4.61-7.88-5.15-11.95a61.3,61.3,0,0,1-.22-11.34c0-.56.08-1.11.1-1.66.13-2.17.27-4.33.35-6.45,0,0,8.23-1.81,15.58-.13,5.44,1.24,9.26,5.76,10.91,12.87a37.52,37.52,0,0,1,.91,8.25c.15,11.82,4.78,13.89,6.59,17.36S318.22,155.16,309.71,154.66Z"/><path class="cls-20" d="M294.54,126.17l-2-7.61-1.37,8S292.28,127.47,294.54,126.17Z"/><path class="cls-21" d="M300.42,127.47s-1.25,2.68-5.23,3.15"/><path class="cls-22" d="M300,114.58a3.94,3.94,0,0,0-4.4-1"/><path class="cls-17" d="M296.84,118.31c.07.77.52,1.36,1,1.32s.82-.7.76-1.47-.52-1.36-1-1.32S296.78,117.54,296.84,118.31Z"/><path class="cls-17" d="M288,120.49c.07.77.52,1.36,1,1.32s.82-.7.76-1.47-.52-1.37-1-1.32S288,119.72,288,120.49Z"/><path class="cls-17" d="M286.72,110.73a22.9,22.9,0,0,0,8.83-4.15c2.94,9.72,15.46,10.07,18.59,10.07-1.64-7.11-5.58-12.05-11-13.29-7.34-1.68-16,.26-16,.26C287.06,105.75,286.84,108.57,286.72,110.73Z"/><path class="cls-17" d="M297.6,116.84l-2.05-.39S296.08,117.94,297.6,116.84Z"/><path class="cls-17" d="M289.17,119.06l-2.05-.38S287.65,120.16,289.17,119.06Z"/><ellipse class="cls-17" cx="308.19" cy="96.52" rx="7.87" ry="8.26" transform="translate(142.07 373.47) rotate(-76.43)"/><path class="cls-17" d="M292.87,108l-1.66,2.18s4.39-.76,5.36-3.76-2.69-.65-2.69-.65Z"/><path class="cls-14" d="M308.64,136.18a15.54,15.54,0,0,1-4.17,4.52,11.15,11.15,0,0,0-1.44-2.14A20.44,20.44,0,0,0,308.64,136.18Z"/><path class="cls-22" d="M286.12,117.07a3.17,3.17,0,0,1,3.46-2.17"/><path class="cls-18" d="M311.58,117.87a7.85,7.85,0,0,1,.93-1.14c1.17-1.19,3.08-2.75,4.85-1.88,2.14,1,1.69,4.05,1.09,5.89a6.62,6.62,0,0,1-3.08,3.89c-2.11,1.09-5.25.51-5.23-2.33A8.06,8.06,0,0,1,311.58,117.87Z"/><path class="cls-17" d="M313.81,114.6s-3.5,5.9-2.07,11.12.64,7.68-.35,10.45c0,0,.39-7.93-1.25-10.79-2.5-4.37,1-10.8,1-10.8Z"/><path class="cls-9" d="M300.29,97s9.06,1.08,14.51,4.8C314.8,101.75,310.07,95.46,300.29,97Z"/><path class="cls-17" d="M188.44,214.52h57a3.81,3.81,0,0,0,3.7-4.73L239,169.38a3.81,3.81,0,0,0-3.7-2.89h-57a3.81,3.81,0,0,0-3.7,4.73l10.08,40.41A3.81,3.81,0,0,0,188.44,214.52Z"/><path class="cls-17" d="M243.47,211.33h38.74a0,0,0,0,1,0,0v3a0,0,0,0,1,0,0H245.45a2,2,0,0,1-2-2v-1.06A0,0,0,0,1,243.47,211.33Z" transform="translate(525.68 425.71) rotate(180)"/><path class="cls-19" d="M188.44,214.52h57a3.81,3.81,0,0,0,3.7-4.73L239,169.38a3.81,3.81,0,0,0-3.7-2.89h-57a3.81,3.81,0,0,0-3.7,4.73l10.08,40.41A3.81,3.81,0,0,0,188.44,214.52Z"/><path class="cls-17" d="M185.45,214.52h57a3.81,3.81,0,0,0,3.7-4.73L236,169.38a3.81,3.81,0,0,0-3.7-2.89h-57a3.81,3.81,0,0,0-3.7,4.73l10.08,40.41A3.82,3.82,0,0,0,185.45,214.52Z"/><path class="cls-23" d="M185.45,214.52h57a3.81,3.81,0,0,0,3.7-4.73L236,169.38a3.81,3.81,0,0,0-3.7-2.89h-57a3.81,3.81,0,0,0-3.7,4.73l10.08,40.41A3.82,3.82,0,0,0,185.45,214.52Z"/><path class="cls-19" d="M211.41,189.32c.79,3.37-.8,6.64-3.56,7.29s-5.66-1.55-6.46-4.92.8-6.64,3.56-7.29S210.61,186,211.41,189.32Z"/><polygon class="cls-9" points="171.62 218.03 150.59 348.45 145.93 348.45 167.08 217.29 171.62 218.03"/><polygon class="cls-13" points="171.62 218.03 150.59 348.45 145.93 348.45 167.08 217.29 171.62 218.03"/><polygon class="cls-9" points="202.56 348.45 197.89 348.45 177.57 218.02 182.12 217.31 202.56 348.45"/><polygon class="cls-13" points="202.56 348.45 197.89 348.45 177.57 218.02 182.12 217.31 202.56 348.45"/><polygon class="cls-9" points="251.08 218.03 230.05 348.45 225.38 348.45 246.53 217.29 251.08 218.03"/><polygon class="cls-13" points="251.08 218.03 230.05 348.45 225.38 348.45 246.53 217.29 251.08 218.03"/><polygon class="cls-9" points="321.27 348.45 316.61 348.45 296.28 218.02 300.83 217.31 321.27 348.45"/><polygon class="cls-13" points="321.27 348.45 316.61 348.45 296.28 218.02 300.83 217.31 321.27 348.45"/><rect class="cls-9" x="133.75" y="213.58" width="193.25" height="6.07"/><rect class="cls-19" x="249.2" y="213.58" width="77.89" height="6.07"/><path class="cls-17" d="M320.07,213.58H288.15a1.78,1.78,0,0,1,1.78-1.78h28.35a1.79,1.79,0,0,1,1.79,1.78Z"/><path class="cls-17" d="M308.48,196.57l-4.3,10.32c-.79-.16-1.5-.27-2-.34l4.48-10.75a1,1,0,0,1,1.85.77Z"/><ellipse class="cls-17" cx="311.52" cy="176.91" rx="10" ry="11.58"/><polygon class="cls-17" points="333.63 173.35 332.95 170.94 348.26 163.31 348.78 166.2 333.63 173.35"/><polygon class="cls-14" points="332.95 170.94 328.31 163.99 335.68 181.21 332.95 170.94"/><polygon class="cls-17" points="291.27 178.83 290.85 176.22 284.36 173.75 284.36 176.22 291.27 178.83"/><path class="cls-14" d="M291.27,178.83c-.13-.5-1.72-11.41-1.72-11.41v10.76Z"/><path class="cls-17" d="M304.2,145.94s-4.38,9.78,5.94,9.47,12.92-7.93,13.44-13.6l-3.22-1.11s-1.86,8-8.84,9.59-6.4-5.69-6.4-5.69Z"/><polygon class="cls-14" points="245.56 342.09 256.45 344.65 257.07 341.92 246.19 339.69 245.56 342.09"/></g></g></svg>