<svg width="57" height="57" viewBox="0 0 57 57" fill="none" xmlns="http://www.w3.org/2000/svg">
<path d="M0 28.5C0 44.244 12.756 57 28.5 57C44.244 57 57 44.244 57 28.5C57 12.756 44.244 0 28.5 0C12.756 0 0 12.756 0 28.5ZM51.4839 28.5C51.4839 41.1986 41.1986 51.4839 28.5 51.4839C15.8014 51.4839 5.51613 41.1986 5.51613 28.5C5.51613 15.8014 15.8014 5.51613 28.5 5.51613C41.1986 5.51613 51.4839 15.8014 51.4839 28.5ZM43.2097 26.2016V30.7984C43.2097 31.5569 42.5891 32.1774 41.8306 32.1774H28.5V39.877C28.5 41.1067 27.0175 41.7157 26.1442 40.8538L14.7671 29.4768C14.227 28.9367 14.227 28.0633 14.7671 27.5232L26.1442 16.1462C27.0175 15.2728 28.5 15.8933 28.5 17.123V24.8226H41.8306C42.5891 24.8226 43.2097 25.4431 43.2097 26.2016Z" fill="#203FC7"/>
</svg>
