<svg width="57" height="54" viewBox="0 0 57 54" fill="none" xmlns="http://www.w3.org/2000/svg">
<path d="M57 26.8065C57 41.6149 44.244 53.6129 28.5 53.6129C12.756 53.6129 0 41.6149 0 26.8065C0 11.9981 12.756 0 28.5 0C44.244 0 57 11.9981 57 26.8065ZM5.51613 26.8065C5.51613 38.7505 15.8014 48.4246 28.5 48.4246C41.1986 48.4246 51.4839 38.7505 51.4839 26.8065C51.4839 14.8625 41.1986 5.18835 28.5 5.18835C15.8014 5.18835 5.51613 14.8625 5.51613 26.8065ZM13.7903 24.6447V28.9683C13.7903 29.6817 14.4109 30.2654 15.1694 30.2654H28.5V37.5074C28.5 38.664 29.9825 39.2369 30.8558 38.4262L42.2329 27.7252C42.773 27.2172 42.773 26.3957 42.2329 25.8877L30.8558 15.1867C29.9825 14.3652 28.5 14.9489 28.5 16.1055V23.3476H15.1694C14.4109 23.3476 13.7903 23.9313 13.7903 24.6447Z" fill="#203FC7"/>
</svg>
