<?xml version="1.0" encoding="utf-8"?>
<!-- Generator: Adobe Illustrator 25.2.3, SVG Export Plug-In . SVG Version: 6.00 Build 0)  -->
<svg version="1.1" id="marketing" xmlns="http://www.w3.org/2000/svg" xmlns:xlink="http://www.w3.org/1999/xlink" x="0px" y="0px"
	 viewBox="0 0 512 512" style="enable-background:new 0 0 512 512;" xml:space="preserve">
<style type="text/css">
	.st0{fill:#FFFFFF;}
</style>
<path class="st0" d="M378,223.2c12.3-8.2,21.1-20.6,25-35.1c4.3-15.9,2.1-32.4-6.1-46.6s-21.4-24.3-37.3-28.5
	c-14.5-3.9-29.6-2.4-42.9,4.1l-34.3-59.3c-7.3-12.6-20.4-20-34.9-19.7c-14.6,0.3-27.4,8.1-34.2,21c-4.8,9.1-9.3,18.5-14.1,28.4
	c-19.4,40.6-41.4,86.6-89.1,114.1l-61.2,35.3C28.1,249.1,13,268.8,6.7,292.4c-6.3,23.6-3.1,48.2,9,69.3
	C32.6,391,63.4,407.4,95,407.4c11.5,0,23.2-2.2,34.3-6.7l42.8,74.1c8.8,15.3,25,23.9,41.5,23.9c8.1,0,16.3-2.1,23.8-6.4
	c11-6.4,18.9-16.7,22.2-29c3.3-12.4,1.6-25.2-4.7-36.3L212.7,354c44.3-21.1,90.8-17.5,132.2-14.3c11,0.9,21.4,1.7,31.7,2
	c14.6,0.5,27.8-6.6,35.3-19.1c7.5-12.5,7.7-27.5,0.4-40.1L378,223.2L378,223.2z M353.2,137.2c9.4,2.5,17.3,8.5,22.1,16.9
	c9.3,16.2,4.8,36.6-9.8,47.4l-36.1-62.6C336.8,135.7,345.2,135,353.2,137.2L353.2,137.2z M94.9,382.4c-22.9,0-45.3-11.9-57.6-33.2
	c-8.8-15.3-11.1-33.1-6.5-50.3c4.6-17.2,15.5-31.5,30.8-40.3l50.4-29.1l66.4,114.9L128,373.5C117.6,379.5,106.2,382.4,94.9,382.4
	L94.9,382.4z M235.4,456.7c-1.6,5.9-5.3,10.8-10.6,13.9c-10.9,6.3-24.9,2.5-31.2-8.4l-42.3-73.3l39.5-22.8l42.3,73.3
	C236.2,444.7,237,450.8,235.4,456.7L235.4,456.7z M390.5,309.8c-2.8,4.7-7.4,7.2-13,7c-9.7-0.4-19.9-1.1-30.7-2
	c-45.2-3.5-96-7.4-146.6,17.5l-66.8-115.6c46.9-31.4,68.9-77.4,88.5-118.3c4.7-9.7,9.1-18.9,13.6-27.5c2.6-4.9,7-7.6,12.6-7.7
	c0.1,0,0.2,0,0.3,0c5.4,0,9.8,2.6,12.5,7.3L390.6,295C393.4,299.8,393.3,305,390.5,309.8L390.5,309.8z M358,64.3l25.8-44.7
	c3.5-6,11.1-8,17.1-4.6c6,3.5,8,11.1,4.6,17.1l-25.8,44.7c-2.3,4-6.5,6.3-10.8,6.3c-2.1,0-4.3-0.5-6.2-1.7
	C356.6,78,354.6,70.3,358,64.3z M474.1,111.5l-45.8,26.4c-2,1.1-4.1,1.7-6.2,1.7c-4.3,0-8.5-2.2-10.8-6.3c-3.5-6-1.4-13.6,4.6-17.1
	l45.8-26.4c6-3.5,13.6-1.4,17.1,4.6S480,108.1,474.1,111.5z M508.5,201.4c0,6.9-5.6,12.5-12.5,12.5h-51.6c-6.9,0-12.5-5.6-12.5-12.5
	s5.6-12.5,12.5-12.5H496C502.9,188.9,508.5,194.5,508.5,201.4z"/>
</svg>
