<?xml version="1.0" encoding="utf-8"?>
<!-- Generator: Adobe Illustrator 25.2.3, SVG Export Plug-In . SVG Version: 6.00 Build 0)  -->
<svg version="1.1" id="lock" xmlns="http://www.w3.org/2000/svg" xmlns:xlink="http://www.w3.org/1999/xlink" x="0px" y="0px"
	 viewBox="0 0 32 32" style="enable-background:new 0 0 32 32;" xml:space="preserve">
<style type="text/css">
	.st0{fill:#FFFFFF;}
</style>
<g>
	<path class="st0" d="M25,11h-1v-1c0-4.4-3.6-8-8-8s-8,3.6-8,8v1H7c-1.7,0-3,1.3-3,3v13c0,1.7,1.3,3,3,3h18c1.7,0,3-1.3,3-3V14
		C28,12.3,26.7,11,25,11z M10,10c0-3.3,2.7-6,6-6s6,2.7,6,6v1H10V10z M26,27c0,0.6-0.4,1-1,1H7c-0.6,0-1-0.4-1-1V14c0-0.6,0.4-1,1-1
		h18c0.6,0,1,0.4,1,1V27z"/>
	<path class="st0" d="M16,16c-1.7,0-3,1.3-3,3c0,1.3,0.8,2.4,2,2.8V24c0,0.6,0.4,1,1,1c0.6,0,1-0.4,1-1v-2.2
		c1.6-0.5,2.4-2.3,1.8-3.8C18.4,16.8,17.3,16,16,16z M16,20c-0.6,0-1-0.4-1-1s0.4-1,1-1c0.6,0,1,0.4,1,1S16.6,20,16,20z"/>
</g>
</svg>
