<?xml version="1.0" encoding="utf-8"?>
<!-- Generator: Adobe Illustrator 25.2.3, SVG Export Plug-In . SVG Version: 6.00 Build 0)  -->
<svg version="1.1" id="logout" xmlns="http://www.w3.org/2000/svg" xmlns:xlink="http://www.w3.org/1999/xlink" x="0px" y="0px"
	 viewBox="0 0 512 512" style="enable-background:new 0 0 512 512;" xml:space="preserve">
<style type="text/css">
	.st0{fill:#FFFFFF;}
</style>
<path class="st0" d="M380.7,332.4l25.5,25.5L508,256L406.2,154.2l-25.5,25.5l58.4,58.4H184v36h255.1L380.7,332.4z"/>
<path class="st0" d="M408.4,408.7c-40.8,40.8-95,63.3-152.7,63.3c-57.7,0-111.9-22.5-152.7-63.3c-40.8-40.8-63-95-63-152.7
	c0-57.7,22.2-111.9,63-152.7C143.8,62.5,198,40,255.7,40c57.7,0,111.9,22.5,152.7,63.3c2.8,2.8,5.6,5.7,8.2,8.7h45.8
	C417,46.7,341.3,4,255.7,4C116.5,4,4,116.8,4,256c0,139.2,112.5,252,251.7,252c85.6,0,161.3-42.7,206.8-108h-45.8
	C414,403,411.3,405.9,408.4,408.7L408.4,408.7z"/>
</svg>
